<svg width="50" height="48" viewBox="0 0 50 48" fill="none" xmlns="http://www.w3.org/2000/svg">
<path d="M48.659 7.1373C48.3244 6.46718 47.8272 5.8206 46.7891 5.97577C45.946 6.10175 45.1922 6.33642 43.8666 5.52343C39.9563 2.20849 32.97 0 24.9992 0C17.0252 0 10.0363 2.21015 6.12775 5.52665C4.80539 6.33564 4.05236 6.10175 3.21096 5.97577C2.17287 5.8207 1.6758 6.46718 1.34104 7.1373C0.876391 8.06737 -1.0154 11.3651 0.717212 12.7517C2.06155 13.828 2.71789 14.5021 3.04035 14.9002C4.42453 24.3647 12.2775 34.1023 24.9992 34.1023C37.7226 34.1023 45.5757 24.3648 46.9596 14.9002C47.2821 14.5021 47.9384 13.828 49.2828 12.7517C51.0154 11.3651 49.1236 8.06737 48.659 7.1373ZM6.98303 11.6421C6.98303 8.08026 11.1233 5.0083 17.1412 3.53242L7.22502 13.0539C7.07892 12.5925 6.98303 12.1238 6.98303 11.6421ZM8.7506 15.5401C8.68 15.4671 8.61828 15.3899 8.5508 15.3151L21.5941 2.79404C21.76 2.77783 21.9183 2.75175 22.0863 2.73799C23.0822 2.64785 24.1016 2.60566 25.1381 2.60566C25.8025 2.60566 26.4531 2.63242 27.0988 2.67148L11.5139 17.618C10.4093 16.9925 9.47189 16.3005 8.7506 15.5401ZM18.3045 20.0207C16.7839 19.7169 15.369 19.3058 14.0863 18.8201C14.0563 18.8087 14.0295 18.7957 14.0003 18.7836L30.4455 2.99472C30.482 2.99961 30.5203 3.00283 30.556 3.00849C32.1261 3.25547 33.5979 3.60966 34.9553 4.04492C34.9715 4.0498 34.9869 4.05634 35.0031 4.06201L18.3606 20.0304C18.3427 20.0271 18.3232 20.0247 18.3045 20.0207ZM26.9706 20.6372C26.3712 20.6705 25.7546 20.6867 25.1382 20.6867C23.9076 20.6867 22.7029 20.6234 21.5398 20.5031L37.6049 5.08632C38.9222 5.69794 40.0571 6.41513 40.957 7.21933C41.0268 7.27948 41.0894 7.34286 41.1569 7.40458L27.4003 20.6039C27.2557 20.612 27.116 20.6307 26.9706 20.6372ZM31.6403 20.0775L42.7318 9.43515C43.0917 10.1427 43.2915 10.8826 43.2915 11.6421C43.2915 15.4996 38.4577 18.7787 31.6403 20.0775Z" fill="white"/>
<path d="M36.8902 32.2129C35.61 32.9951 34.2219 33.6521 32.7322 34.1623L34.4323 38.4153H15.5673L17.312 34.0485C15.785 33.6651 14.357 33.1242 13.0257 32.4605L8.71506 45.2287C8.32267 46.2976 8.80841 47.4625 9.80187 47.8279C10.7961 48.1942 11.9202 47.6223 12.3142 46.5542L14.2515 41.7074H35.7481L37.6854 46.5542C38.0795 47.6223 39.2036 48.1941 40.1977 47.8279C41.1912 47.4625 41.6769 46.2976 41.2846 45.2287L36.8902 32.2129Z" fill="white"/>
</svg>
